<?xml version="1.0" encoding="UTF-8"?>
<svg id="Calque_1" data-name="Calque 1" xmlns="http://www.w3.org/2000/svg" viewBox="0 0 73.67 90.08">
  <defs>
    <style>
      .cls-1 {
        fill: #f1f2ee;
      }
    </style>
  </defs>
  <g>
    <path class="cls-1" d="M1.12,77.74c-.02-.75-.3-1.59,1.13-1.6h3.52c3.26-.01,4.58,1.38,4.58,3.27-.02,2.13-2.12,2.53-2.12,2.53v.11s2.69.29,2.7,2.95c.02,2.07-1.48,3.59-4.79,3.6H2.13c-1.06,0-1.08-.89-1.07-1.59.07-1.76.06-8.76.06-9.27ZM5.62,86.4c1.37,0,2.2-.52,2.2-1.73,0-1.04-.74-1.67-2.15-1.66h-1.52s0,3.39,0,3.39h1.47ZM5.47,81.21c1.36,0,2.03-.5,2.03-1.51,0-.92-.7-1.43-2-1.43h-1.32s-.01,2.93-.01,2.93h1.3Z"/>
    <path class="cls-1" d="M15.82,78.3c2.73,0,4.2,1.7,4.2,3.77,0,1.61-.53,1.96-1.3,1.96h-4.87s-.04.06-.04.06c.04,1.19.75,2.29,2.44,2.29,1.26,0,2.34-.61,2.64-.76,0,0,.46.35.57,1.01.13.68-.13,1.14-.64,1.43-.4.24-1.46.68-2.91.68-3.52,0-4.97-2.3-4.97-5.27s1.7-5.17,4.88-5.17ZM17.22,82.57s.04-.2.04-.5c0-.95-.5-1.52-1.52-1.52-1.54,0-1.9,1.3-1.87,2.02h3.35Z"/>
    <path class="cls-1" d="M23.35,77.7c-.02-.75-.3-1.59,1.13-1.6h3.52c3.26-.01,4.58,1.38,4.58,3.27-.02,2.13-2.12,2.53-2.12,2.53v.11s2.69.29,2.7,2.95c.02,2.07-1.48,3.59-4.79,3.6h-4.01c-1.06,0-1.08-.89-1.07-1.59.07-1.76.06-8.76.06-9.27ZM27.85,86.36c1.37,0,2.2-.52,2.2-1.73,0-1.04-.74-1.67-2.15-1.66h-1.52s0,3.39,0,3.39h1.47ZM27.7,81.18c1.36,0,2.03-.5,2.03-1.51,0-.92-.7-1.43-2-1.43h-1.32s-.01,2.93-.01,2.93h1.3Z"/>
    <path class="cls-1" d="M39.68,78.29c2.73,0,4.2,1.7,4.2,3.77,0,1.61-.53,1.96-1.3,1.96h-4.87s-.04.06-.04.06c.04,1.19.75,2.29,2.44,2.29,1.26,0,2.34-.61,2.64-.76,0,0,.46.35.57,1.01.13.68-.13,1.14-.64,1.43-.4.24-1.46.68-2.91.68-3.52,0-4.97-2.3-4.97-5.27s1.7-5.17,4.88-5.17ZM41.08,82.55s.04-.2.04-.5c0-.95-.5-1.52-1.52-1.52-1.54,0-1.9,1.3-1.87,2.02h3.35Z"/>
    <path class="cls-1" d="M49.2,82.56c.88.02,1.78.25,2.14.38v-.7c0-.92-.64-1.39-1.78-1.39-1.36,0-2.62.54-2.62.54,0,.02-1.05-1.46-.17-2.33.49-.46,1.59-.79,3.19-.79,2.73,0,4.33,1.51,4.4,3.71.06,1.45-.07,3.96-.03,4.97.02.86.55,1.76-1.37,1.76-.97,0-1.52-.51-1.34-1.92h-.11s-.62,1.92-2.87,1.93c-1.89,0-3.04-1.3-3.12-2.98-.09-2.07,1.52-3.23,3.68-3.17ZM49.53,86.52c1.03,0,1.67-.85,1.81-1.47v-.81c-.18-.07-.73-.18-1.32-.18-.99,0-1.78.48-1.78,1.3.02.71.53,1.15,1.28,1.15Z"/>
    <path class="cls-1" d="M57.41,80.81h-.81c-.37,0-.53-.11-.51-.46.02-.35-.05-.79-.04-1.14.02-.18.09-.4.51-.51,1.47-.2,1.67-1.12,1.74-1.65.09-.37.22-.55.64-.55.57,0,1.69-.22,1.65.64-.02.4-.02.97-.02,1.34.44.02,1.39.02,2.02,0,.44-.02.57.18.57.44,0,.37-.02.92-.02,1.43,0,.27-.07.44-.44.44-.66-.02-1.94,0-2.16,0-.04,1.48-.07,3.55-.05,4.67.02.77.26.95.79.95.37,0,.73-.09,1.04-.15.33-.05.59.15.62.44l.07.75c.04.37-.04.6-.33.79-.59.35-1.74.49-2.55.49-2.07,0-2.8-1.08-2.8-2.97,0-1.03.09-4.31.07-4.96Z"/>
    <path class="cls-1" d="M65.57,85.78s1.12.71,2.73.71c.75,0,1.5-.24,1.5-.9,0-.53-.53-.79-1.39-1.04l-1.12-.35c-1.98-.57-2.49-1.56-2.49-2.73,0-2.02,1.63-3.17,4.2-3.17,2.77,0,3.52.68,3.55,1.21.07.53-.48,1.58-.68,1.7,0,0-1.08-.66-2.51-.66-.57,0-1.37.11-1.37.82,0,.44.31.68,1.04.88l1.23.35c2.05.55,2.8,1.48,2.8,2.86,0,2.05-1.78,3.28-4.56,3.28s-3.54-.73-3.55-1.43c-.02-.73.53-1.48.62-1.54Z"/>
  </g>
  <g>
    <path class="cls-1" d="M19.41,36.37h16.16v20.24c0,8.98-7.29,16.27-16.27,16.27h0c-10.05,0-18.2-8.16-18.2-18.2h0c0-10.1,8.2-18.31,18.31-18.31Z" transform="translate(-.09 .03) rotate(-.1)"/>
    <path class="cls-1" d="M20.02.99h2.13c7.37,0,13.35,5.98,13.35,13.35v18.87h-15.4c-8.29,0-15.03-6.73-15.03-15.03v-2.26C5.08,7.68,11.77.99,20.02.99Z" transform="translate(-.03 .03) rotate(-.1)"/>
    <path class="cls-1" d="M56.75,36.36h0c8.98,0,16.27,7.29,16.27,16.27v20.24h-16.16c-10.1,0-18.31-8.2-18.31-18.31h0c0-10.05,8.16-18.2,18.2-18.2Z" transform="translate(111.66 109.15) rotate(179.9)"/>
    <path class="cls-1" d="M53.37,1.04h15.3v18.77c0,7.37-5.98,13.35-13.35,13.35h-2.03c-8.25,0-14.94-6.69-14.94-14.94v-2.15c0-8.29,6.73-15.03,15.03-15.03Z" transform="translate(107.03 34.11) rotate(179.9)"/>
  </g>
</svg>